<?xml version="1.0" encoding="UTF-8"?><svg id="Layer_1" xmlns="http://www.w3.org/2000/svg" xmlns:xlink="http://www.w3.org/1999/xlink" viewBox="0 0 1156.6 203.1"><defs><mask id="mask" x="0" y="0" width="412" height="412" maskUnits="userSpaceOnUse"><g id="B"><path d="M101.5,0c56.1,0,101.5,45.5,101.5,101.5s-45.5,101.5-101.5,101.5c-5.6,0-10.2-4.5-10.2-10.2s4.5-10.2,10.2-10.2c44.9,0,81.2-36.4,81.2-81.2S146.3,20.2,101.5,20.2,20.3,56.6,20.3,101.4c0,5.6-4.5,10.2-10.2,10.2S0,107.1,0,101.5C0,45.4,45.4,0,101.5,0ZM101.5,33.8c37.4,0,67.7,30.3,67.7,67.7s-30.3,67.7-67.7,67.7-67.7-30.3-67.7-67.7c0-5.6,4.5-10.2,10.2-10.2s10.2,4.5,10.2,10.2c0,26.2,21.2,47.4,47.4,47.4s47.4-21.2,47.4-47.4-21.2-47.4-47.4-47.4c-5.6,0-10.2-4.5-10.2-10.2s4.5-10.1,10.1-10.1h0ZM101.5,67.7c18.7,0,33.8,15.2,33.8,33.8,0,5.6-4.5,10.2-10.2,10.2s-10.2-4.5-10.2-10.2c0-7.5-6.1-13.5-13.5-13.5s-13.5,6.1-13.5,13.5,6.1,13.5,13.5,13.5c5.6,0,10.2,4.5,10.2,10.2s-4.5,10.2-10.2,10.2c-18.7,0-33.8-15.2-33.8-33.8s15.2-33.9,33.9-33.9Z" fill="#fff" fill-rule="evenodd" stroke-width="0"/></g></mask></defs><g mask="url(#mask)"><path d="M0,0h203.1v203.1H0V0Z" fill="#00cd95" fill-rule="evenodd" stroke-width="0"/></g><path d="M715.5,58.1c11.1,0,20.9,2.3,29.2,6.8,8.4,4.5,14.7,11,18.9,19.4l-20.3,11.8c-3.2-5.2-7.3-9.1-12.1-11.7-4.9-2.6-10.2-3.9-15.9-3.9-9.8,0-18,3.2-24.5,9.6s-9.7,14.9-9.7,25.6,3.2,19.2,9.6,25.6,14.6,9.6,24.6,9.6c5.8,0,11.1-1.3,15.9-3.9s8.9-6.5,12.1-11.7l20.3,11.8c-4.4,8.4-10.7,14.9-19.1,19.5s-18,6.9-29,6.9c-11.7,0-22.2-2.5-31.4-7.4-9.3-4.9-16.5-11.8-21.7-20.6s-7.8-18.7-7.8-29.9,2.6-21,7.8-29.7,12.4-15.5,21.6-20.5c9.1-4.9,19.7-7.3,31.5-7.3h0Z" fill="#1c1f2c" fill-rule="evenodd" stroke-width="0"/><path d="M956.8,58.1c7.7,0,15.5.9,23.2,2.6,7.7,1.8,14.1,4.1,19,7.1l-10.1,20c-9.6-5.6-20.3-8.4-32.3-8.4-7.7,0-13.6,1.2-17.6,3.5s-6,5.4-6,9.2c0,4.2,2.1,7.2,6.4,9s10.9,3.4,19.9,5c9,1.4,16.4,3,22.2,4.9,5.8,1.8,10.7,4.9,14.9,9.3s6.2,10.5,6.2,18.6c0,10.5-4.6,19-13.7,25.3s-21.6,9.5-37.4,9.5c-9.1,0-18.1-1.2-26.8-3.6s-15.7-5.4-20.9-9.1l10.1-20c5.1,3.4,11.2,6.1,18.3,8.1s14.1,3.1,21,3.1c15.8,0,23.6-4.1,23.6-12.4,0-3.9-2-6.7-6-8.2s-10.4-3-19.3-4.4c-9.3-1.4-16.8-3-22.7-4.9-5.8-1.8-10.9-5-15.2-9.6s-6.4-10.9-6.4-19.1c0-10.7,4.5-19.2,13.4-25.6,8.9-6.7,21-9.9,36.2-9.9h0Z" fill="#1c1f2c" fill-rule="evenodd" stroke-width="0"/><path d="M1043.6,34.4v25.7h30.2v21.1h-30.2v53.6c0,5.5,1.4,9.7,4.1,12.6s6.6,4.3,11.5,4.3c5.9,0,10.8-1.5,14.8-4.6l7.4,18.8c-3.1,2.5-6.9,4.4-11.3,5.7s-9.1,1.9-14,1.9c-12.4,0-21.9-3.2-28.7-9.7s-10.1-15.9-10.1-28.3V34.4h26.3,0Z" fill="#1c1f2c" fill-rule="evenodd" stroke-width="0"/><path d="M298.6,14c10,0,17.9,2,23.6,6.1l-7.4,19.8c-4.2-3.1-9-4.6-14.4-4.6-11.1,0-16.7,6-16.7,18.1v6.8h31v21.1h-30.4v90.7h-26.4V53c0-12,3.5-21.4,10.6-28.5s17.1-10.5,30.1-10.5Z" fill="#1c1f2c" fill-rule="evenodd" stroke-width="0"/><path d="M523.2,58.1v25.1c-2.3-.4-4.3-.6-6.1-.6-10.3,0-18.3,3-24.1,9s-8.7,14.6-8.7,25.8v54.6h-26.3V59.3h25.1v16.5c7.6-11.8,20.9-17.7,40.1-17.7Z" fill="#1c1f2c" fill-rule="evenodd" stroke-width="0"/><path d="M1156.6,58.1v25.1c-2.3-.4-4.3-.6-6.1-.6-10.3,0-18.3,3-24.1,9s-8.7,14.6-8.7,25.8v54.6h-26.4V59.3h25.1v16.5c7.7-11.8,21-17.7,40.2-17.7Z" fill="#1c1f2c" fill-rule="evenodd" stroke-width="0"/><path d="M436.7,86c-5.1-8.8-12.3-15.6-21.4-20.5-9.1-4.9-19.5-7.4-31-7.4s-21.7,2.4-30.9,7.3c-9.1,5-16.2,11.9-21.3,20.6-5.1,8.7-7.7,18.5-7.7,29.7s2.6,21.1,7.7,29.9c5.1,8.8,12.3,15.7,21.4,20.6,9.1,4.9,19.4,7.4,30.8,7.4s21.9-2.5,31-7.4c9.1-5,16.3-11.8,21.4-20.6,5.1-8.8,7.7-18.8,7.7-29.9s-2.6-20.9-7.7-29.7ZM408.4,141.1c-6.4,6.5-14.4,9.7-24.1,9.7s-17.7-3.3-24-9.7-9.4-15-9.4-25.5,3.1-19,9.4-25.5,14.3-9.7,24-9.7,17.7,3.2,24.1,9.7c6.3,6.4,9.5,15,9.5,25.5s-3.2,19-9.5,25.5Z" fill="#1c1f2c" fill-rule="evenodd" stroke-width="0"/><path d="M865.5,59.3v13.8c-4.5-4.9-9.8-8.7-15.9-11.2-6.2-2.5-12.9-3.8-20.2-3.8-11,0-20.8,2.3-29.3,7-8.7,4.7-15.4,11.5-20.3,20.1-4.9,8.7-7.3,18.7-7.3,30.3s2.4,21.7,7.3,30.4c4.9,8.8,11.6,15.5,20.3,20.3,8.6,4.8,18.4,7.2,29.4,7.2,7.7,0,14.8-1.3,21.2-4,6.4-2.6,11.7-6.7,16.1-12v14.6h25.1V59.3h-26.4ZM856.4,141.1c-6.4,6.5-14.4,9.7-24.1,9.7s-17.7-3.3-24-9.7-9.4-15-9.4-25.5,3.1-19,9.4-25.5,14.3-9.7,24-9.7,17.8,3.2,24.1,9.7c6.3,6.4,9.5,15,9.5,25.5s-3.2,19-9.5,25.5Z" fill="#1c1f2c" stroke-width="0"/><path d="M590.5,151.3c-8.3,0-15.4-1.7-21.3-5.1s-10.2-8.3-12.9-14.8l86.3-16.9c0-11.4-2.5-21.4-7.6-29.9s-11.9-15-20.6-19.6c-8.6-4.6-18.2-6.9-28.8-6.9h0c-11.1,0-21,2.4-29.8,7.4s-15.7,11.8-20.7,20.6c-5,8.7-7.5,18.6-7.5,29.6s2.6,21.1,7.7,29.9,12.4,15.7,21.8,20.6c9.4,4.9,20.3,7.4,32.7,7.4,9.7,0,18.5-1.5,26.2-4.6,7.7-3.1,14.1-7.7,19-13.7l-13.9-16.2c-8.2,8.1-18.4,12.2-30.6,12.2ZM553.1,114.1c0-10.7,3-19.2,9-25.5,5.9-6.3,13.8-9.5,23.5-9.5h0c7.9,0,14.6,2.2,20.1,6.3,5.6,4.3,9.3,9.8,11.1,16.7l-63.7,12.2v-.2Z" fill="#1c1f2c" fill-rule="evenodd" stroke-width="0"/></svg>

